<mxfile host="app.diagrams.net" modified="2020-07-16T11:53:21.827Z" agent="5.0 (Macintosh; Intel Mac OS X 10_15_5) AppleWebKit/537.36 (KHTML, like Gecko) Chrome/83.0.4103.116 Safari/537.36" etag="6aFDGLfes8EGlO-asDF5" version="13.4.2" type="github">
  <diagram id="dtkdQh6h5hYtsAXrLj4B" name="Page-1">
    <mxGraphModel dx="2066" dy="1154" grid="1" gridSize="10" guides="1" tooltips="1" connect="1" arrows="1" fold="1" page="1" pageScale="1" pageWidth="827" pageHeight="1169" math="0" shadow="0">
      <root>
        <mxCell id="0" />
        <mxCell id="1" parent="0" />
        <mxCell id="iabTwCIQhZHO9AV8Lh7r-1" value="" style="shape=table;html=1;whiteSpace=wrap;startSize=0;container=1;collapsible=0;childLayout=tableLayout;fillColor=#dae8fc;strokeColor=#6c8ebf;" vertex="1" parent="1">
          <mxGeometry x="110" y="160" width="60" height="400" as="geometry" />
        </mxCell>
        <mxCell id="iabTwCIQhZHO9AV8Lh7r-2" value="" style="shape=partialRectangle;html=1;whiteSpace=wrap;collapsible=0;dropTarget=0;pointerEvents=0;fillColor=none;top=0;left=0;bottom=0;right=0;points=[[0,0.5],[1,0.5]];portConstraint=eastwest;" vertex="1" parent="iabTwCIQhZHO9AV8Lh7r-1">
          <mxGeometry width="60" height="40" as="geometry" />
        </mxCell>
        <mxCell id="iabTwCIQhZHO9AV8Lh7r-3" value="10" style="shape=partialRectangle;html=1;whiteSpace=wrap;connectable=0;overflow=hidden;fillColor=#e1d5e7;top=0;left=0;bottom=0;right=0;strokeColor=#9673a6;" vertex="1" parent="iabTwCIQhZHO9AV8Lh7r-2">
          <mxGeometry width="60" height="40" as="geometry" />
        </mxCell>
        <mxCell id="iabTwCIQhZHO9AV8Lh7r-4" value="" style="shape=partialRectangle;html=1;whiteSpace=wrap;collapsible=0;dropTarget=0;pointerEvents=0;fillColor=none;top=0;left=0;bottom=0;right=0;points=[[0,0.5],[1,0.5]];portConstraint=eastwest;" vertex="1" parent="iabTwCIQhZHO9AV8Lh7r-1">
          <mxGeometry y="40" width="60" height="40" as="geometry" />
        </mxCell>
        <mxCell id="iabTwCIQhZHO9AV8Lh7r-5" value="9" style="shape=partialRectangle;html=1;whiteSpace=wrap;connectable=0;overflow=hidden;fillColor=#e1d5e7;top=0;left=0;bottom=0;right=0;strokeColor=#9673a6;" vertex="1" parent="iabTwCIQhZHO9AV8Lh7r-4">
          <mxGeometry width="60" height="40" as="geometry" />
        </mxCell>
        <mxCell id="iabTwCIQhZHO9AV8Lh7r-6" value="" style="shape=partialRectangle;html=1;whiteSpace=wrap;collapsible=0;dropTarget=0;pointerEvents=0;fillColor=none;top=0;left=0;bottom=0;right=0;points=[[0,0.5],[1,0.5]];portConstraint=eastwest;" vertex="1" parent="iabTwCIQhZHO9AV8Lh7r-1">
          <mxGeometry y="80" width="60" height="40" as="geometry" />
        </mxCell>
        <mxCell id="iabTwCIQhZHO9AV8Lh7r-7" value="8" style="shape=partialRectangle;html=1;whiteSpace=wrap;connectable=0;overflow=hidden;fillColor=#e1d5e7;top=0;left=0;bottom=0;right=0;strokeColor=#9673a6;" vertex="1" parent="iabTwCIQhZHO9AV8Lh7r-6">
          <mxGeometry width="60" height="40" as="geometry" />
        </mxCell>
        <mxCell id="iabTwCIQhZHO9AV8Lh7r-8" value="" style="shape=partialRectangle;html=1;whiteSpace=wrap;collapsible=0;dropTarget=0;pointerEvents=0;fillColor=none;top=0;left=0;bottom=0;right=0;points=[[0,0.5],[1,0.5]];portConstraint=eastwest;" vertex="1" parent="iabTwCIQhZHO9AV8Lh7r-1">
          <mxGeometry y="120" width="60" height="40" as="geometry" />
        </mxCell>
        <mxCell id="iabTwCIQhZHO9AV8Lh7r-9" value="7" style="shape=partialRectangle;html=1;whiteSpace=wrap;connectable=0;overflow=hidden;fillColor=#e1d5e7;top=0;left=0;bottom=0;right=0;strokeColor=#9673a6;" vertex="1" parent="iabTwCIQhZHO9AV8Lh7r-8">
          <mxGeometry width="60" height="40" as="geometry" />
        </mxCell>
        <mxCell id="iabTwCIQhZHO9AV8Lh7r-10" value="" style="shape=partialRectangle;html=1;whiteSpace=wrap;collapsible=0;dropTarget=0;pointerEvents=0;fillColor=none;top=0;left=0;bottom=0;right=0;points=[[0,0.5],[1,0.5]];portConstraint=eastwest;" vertex="1" parent="iabTwCIQhZHO9AV8Lh7r-1">
          <mxGeometry y="160" width="60" height="40" as="geometry" />
        </mxCell>
        <mxCell id="iabTwCIQhZHO9AV8Lh7r-11" value="6" style="shape=partialRectangle;html=1;whiteSpace=wrap;connectable=0;overflow=hidden;fillColor=none;top=0;left=0;bottom=0;right=0;" vertex="1" parent="iabTwCIQhZHO9AV8Lh7r-10">
          <mxGeometry width="60" height="40" as="geometry" />
        </mxCell>
        <mxCell id="iabTwCIQhZHO9AV8Lh7r-12" value="" style="shape=partialRectangle;html=1;whiteSpace=wrap;collapsible=0;dropTarget=0;pointerEvents=0;fillColor=none;top=0;left=0;bottom=0;right=0;points=[[0,0.5],[1,0.5]];portConstraint=eastwest;" vertex="1" parent="iabTwCIQhZHO9AV8Lh7r-1">
          <mxGeometry y="200" width="60" height="40" as="geometry" />
        </mxCell>
        <mxCell id="iabTwCIQhZHO9AV8Lh7r-13" value="5" style="shape=partialRectangle;html=1;whiteSpace=wrap;connectable=0;overflow=hidden;fillColor=none;top=0;left=0;bottom=0;right=0;" vertex="1" parent="iabTwCIQhZHO9AV8Lh7r-12">
          <mxGeometry width="60" height="40" as="geometry" />
        </mxCell>
        <mxCell id="iabTwCIQhZHO9AV8Lh7r-14" value="" style="shape=partialRectangle;html=1;whiteSpace=wrap;collapsible=0;dropTarget=0;pointerEvents=0;fillColor=none;top=0;left=0;bottom=0;right=0;points=[[0,0.5],[1,0.5]];portConstraint=eastwest;" vertex="1" parent="iabTwCIQhZHO9AV8Lh7r-1">
          <mxGeometry y="240" width="60" height="40" as="geometry" />
        </mxCell>
        <mxCell id="iabTwCIQhZHO9AV8Lh7r-15" value="4" style="shape=partialRectangle;html=1;whiteSpace=wrap;connectable=0;overflow=hidden;fillColor=none;top=0;left=0;bottom=0;right=0;" vertex="1" parent="iabTwCIQhZHO9AV8Lh7r-14">
          <mxGeometry width="60" height="40" as="geometry" />
        </mxCell>
        <mxCell id="iabTwCIQhZHO9AV8Lh7r-16" value="" style="shape=partialRectangle;html=1;whiteSpace=wrap;collapsible=0;dropTarget=0;pointerEvents=0;fillColor=none;top=0;left=0;bottom=0;right=0;points=[[0,0.5],[1,0.5]];portConstraint=eastwest;" vertex="1" parent="iabTwCIQhZHO9AV8Lh7r-1">
          <mxGeometry y="280" width="60" height="40" as="geometry" />
        </mxCell>
        <mxCell id="iabTwCIQhZHO9AV8Lh7r-17" value="3" style="shape=partialRectangle;html=1;whiteSpace=wrap;connectable=0;overflow=hidden;fillColor=none;top=0;left=0;bottom=0;right=0;" vertex="1" parent="iabTwCIQhZHO9AV8Lh7r-16">
          <mxGeometry width="60" height="40" as="geometry" />
        </mxCell>
        <mxCell id="iabTwCIQhZHO9AV8Lh7r-18" value="" style="shape=partialRectangle;html=1;whiteSpace=wrap;collapsible=0;dropTarget=0;pointerEvents=0;fillColor=none;top=0;left=0;bottom=0;right=0;points=[[0,0.5],[1,0.5]];portConstraint=eastwest;" vertex="1" parent="iabTwCIQhZHO9AV8Lh7r-1">
          <mxGeometry y="320" width="60" height="40" as="geometry" />
        </mxCell>
        <mxCell id="iabTwCIQhZHO9AV8Lh7r-19" value="2" style="shape=partialRectangle;html=1;whiteSpace=wrap;connectable=0;overflow=hidden;fillColor=none;top=0;left=0;bottom=0;right=0;" vertex="1" parent="iabTwCIQhZHO9AV8Lh7r-18">
          <mxGeometry width="60" height="40" as="geometry" />
        </mxCell>
        <mxCell id="iabTwCIQhZHO9AV8Lh7r-20" value="" style="shape=partialRectangle;html=1;whiteSpace=wrap;collapsible=0;dropTarget=0;pointerEvents=0;fillColor=none;top=0;left=0;bottom=0;right=0;points=[[0,0.5],[1,0.5]];portConstraint=eastwest;" vertex="1" parent="iabTwCIQhZHO9AV8Lh7r-1">
          <mxGeometry y="360" width="60" height="40" as="geometry" />
        </mxCell>
        <mxCell id="iabTwCIQhZHO9AV8Lh7r-21" value="1" style="shape=partialRectangle;html=1;whiteSpace=wrap;connectable=0;overflow=hidden;fillColor=none;top=0;left=0;bottom=0;right=0;" vertex="1" parent="iabTwCIQhZHO9AV8Lh7r-20">
          <mxGeometry width="60" height="40" as="geometry" />
        </mxCell>
        <mxCell id="iabTwCIQhZHO9AV8Lh7r-43" value="" style="shape=table;html=1;whiteSpace=wrap;startSize=0;container=1;collapsible=0;childLayout=tableLayout;gradientColor=#b3b3b3;fillColor=#f5f5f5;strokeColor=#666666;" vertex="1" parent="1">
          <mxGeometry x="700" y="160" width="60" height="560" as="geometry" />
        </mxCell>
        <mxCell id="iabTwCIQhZHO9AV8Lh7r-44" value="" style="shape=partialRectangle;html=1;whiteSpace=wrap;collapsible=0;dropTarget=0;pointerEvents=0;fillColor=none;top=0;left=0;bottom=0;right=0;points=[[0,0.5],[1,0.5]];portConstraint=eastwest;" vertex="1" parent="iabTwCIQhZHO9AV8Lh7r-43">
          <mxGeometry width="60" height="40" as="geometry" />
        </mxCell>
        <mxCell id="iabTwCIQhZHO9AV8Lh7r-45" value="5" style="shape=partialRectangle;html=1;whiteSpace=wrap;connectable=0;overflow=hidden;fillColor=#dae8fc;top=0;left=0;bottom=0;right=0;strokeColor=#6c8ebf;" vertex="1" parent="iabTwCIQhZHO9AV8Lh7r-44">
          <mxGeometry width="60" height="40" as="geometry" />
        </mxCell>
        <mxCell id="iabTwCIQhZHO9AV8Lh7r-46" value="" style="shape=partialRectangle;html=1;whiteSpace=wrap;collapsible=0;dropTarget=0;pointerEvents=0;fillColor=none;top=0;left=0;bottom=0;right=0;points=[[0,0.5],[1,0.5]];portConstraint=eastwest;" vertex="1" parent="iabTwCIQhZHO9AV8Lh7r-43">
          <mxGeometry y="40" width="60" height="40" as="geometry" />
        </mxCell>
        <mxCell id="iabTwCIQhZHO9AV8Lh7r-47" value="2" style="shape=partialRectangle;html=1;whiteSpace=wrap;connectable=0;overflow=hidden;fillColor=#dae8fc;top=0;left=0;bottom=0;right=0;strokeColor=#6c8ebf;" vertex="1" parent="iabTwCIQhZHO9AV8Lh7r-46">
          <mxGeometry width="60" height="40" as="geometry" />
        </mxCell>
        <mxCell id="iabTwCIQhZHO9AV8Lh7r-48" value="" style="shape=partialRectangle;html=1;whiteSpace=wrap;collapsible=0;dropTarget=0;pointerEvents=0;fillColor=none;top=0;left=0;bottom=0;right=0;points=[[0,0.5],[1,0.5]];portConstraint=eastwest;" vertex="1" parent="iabTwCIQhZHO9AV8Lh7r-43">
          <mxGeometry y="80" width="60" height="40" as="geometry" />
        </mxCell>
        <mxCell id="iabTwCIQhZHO9AV8Lh7r-49" value="" style="shape=partialRectangle;html=1;whiteSpace=wrap;connectable=0;overflow=hidden;fillColor=none;top=0;left=0;bottom=0;right=0;" vertex="1" parent="iabTwCIQhZHO9AV8Lh7r-48">
          <mxGeometry width="60" height="40" as="geometry" />
        </mxCell>
        <mxCell id="iabTwCIQhZHO9AV8Lh7r-50" value="" style="shape=partialRectangle;html=1;whiteSpace=wrap;collapsible=0;dropTarget=0;pointerEvents=0;fillColor=none;top=0;left=0;bottom=0;right=0;points=[[0,0.5],[1,0.5]];portConstraint=eastwest;" vertex="1" parent="iabTwCIQhZHO9AV8Lh7r-43">
          <mxGeometry y="120" width="60" height="40" as="geometry" />
        </mxCell>
        <mxCell id="iabTwCIQhZHO9AV8Lh7r-51" value="4" style="shape=partialRectangle;html=1;whiteSpace=wrap;connectable=0;overflow=hidden;fillColor=#dae8fc;top=0;left=0;bottom=0;right=0;strokeColor=#6c8ebf;" vertex="1" parent="iabTwCIQhZHO9AV8Lh7r-50">
          <mxGeometry width="60" height="40" as="geometry" />
        </mxCell>
        <mxCell id="iabTwCIQhZHO9AV8Lh7r-52" value="" style="shape=partialRectangle;html=1;whiteSpace=wrap;collapsible=0;dropTarget=0;pointerEvents=0;fillColor=none;top=0;left=0;bottom=0;right=0;points=[[0,0.5],[1,0.5]];portConstraint=eastwest;" vertex="1" parent="iabTwCIQhZHO9AV8Lh7r-43">
          <mxGeometry y="160" width="60" height="40" as="geometry" />
        </mxCell>
        <mxCell id="iabTwCIQhZHO9AV8Lh7r-53" value="" style="shape=partialRectangle;html=1;whiteSpace=wrap;connectable=0;overflow=hidden;fillColor=none;top=0;left=0;bottom=0;right=0;" vertex="1" parent="iabTwCIQhZHO9AV8Lh7r-52">
          <mxGeometry width="60" height="40" as="geometry" />
        </mxCell>
        <mxCell id="iabTwCIQhZHO9AV8Lh7r-54" value="" style="shape=partialRectangle;html=1;whiteSpace=wrap;collapsible=0;dropTarget=0;pointerEvents=0;fillColor=none;top=0;left=0;bottom=0;right=0;points=[[0,0.5],[1,0.5]];portConstraint=eastwest;" vertex="1" parent="iabTwCIQhZHO9AV8Lh7r-43">
          <mxGeometry y="200" width="60" height="40" as="geometry" />
        </mxCell>
        <mxCell id="iabTwCIQhZHO9AV8Lh7r-55" value="3" style="shape=partialRectangle;html=1;whiteSpace=wrap;connectable=0;overflow=hidden;fillColor=#dae8fc;top=0;left=0;bottom=0;right=0;strokeColor=#6c8ebf;" vertex="1" parent="iabTwCIQhZHO9AV8Lh7r-54">
          <mxGeometry width="60" height="40" as="geometry" />
        </mxCell>
        <mxCell id="iabTwCIQhZHO9AV8Lh7r-56" value="" style="shape=partialRectangle;html=1;whiteSpace=wrap;collapsible=0;dropTarget=0;pointerEvents=0;fillColor=none;top=0;left=0;bottom=0;right=0;points=[[0,0.5],[1,0.5]];portConstraint=eastwest;" vertex="1" parent="iabTwCIQhZHO9AV8Lh7r-43">
          <mxGeometry y="240" width="60" height="40" as="geometry" />
        </mxCell>
        <mxCell id="iabTwCIQhZHO9AV8Lh7r-57" value="" style="shape=partialRectangle;html=1;whiteSpace=wrap;connectable=0;overflow=hidden;fillColor=none;top=0;left=0;bottom=0;right=0;" vertex="1" parent="iabTwCIQhZHO9AV8Lh7r-56">
          <mxGeometry width="60" height="40" as="geometry" />
        </mxCell>
        <mxCell id="iabTwCIQhZHO9AV8Lh7r-58" value="" style="shape=partialRectangle;html=1;whiteSpace=wrap;collapsible=0;dropTarget=0;pointerEvents=0;fillColor=none;top=0;left=0;bottom=0;right=0;points=[[0,0.5],[1,0.5]];portConstraint=eastwest;" vertex="1" parent="iabTwCIQhZHO9AV8Lh7r-43">
          <mxGeometry y="280" width="60" height="40" as="geometry" />
        </mxCell>
        <mxCell id="iabTwCIQhZHO9AV8Lh7r-59" value="6" style="shape=partialRectangle;html=1;whiteSpace=wrap;connectable=0;overflow=hidden;fillColor=#dae8fc;top=0;left=0;bottom=0;right=0;strokeColor=#6c8ebf;" vertex="1" parent="iabTwCIQhZHO9AV8Lh7r-58">
          <mxGeometry width="60" height="40" as="geometry" />
        </mxCell>
        <mxCell id="iabTwCIQhZHO9AV8Lh7r-60" value="" style="shape=partialRectangle;html=1;whiteSpace=wrap;collapsible=0;dropTarget=0;pointerEvents=0;fillColor=none;top=0;left=0;bottom=0;right=0;points=[[0,0.5],[1,0.5]];portConstraint=eastwest;" vertex="1" parent="iabTwCIQhZHO9AV8Lh7r-43">
          <mxGeometry y="320" width="60" height="40" as="geometry" />
        </mxCell>
        <mxCell id="iabTwCIQhZHO9AV8Lh7r-61" value="1" style="shape=partialRectangle;html=1;whiteSpace=wrap;connectable=0;overflow=hidden;fillColor=#dae8fc;top=0;left=0;bottom=0;right=0;strokeColor=#6c8ebf;" vertex="1" parent="iabTwCIQhZHO9AV8Lh7r-60">
          <mxGeometry width="60" height="40" as="geometry" />
        </mxCell>
        <mxCell id="iabTwCIQhZHO9AV8Lh7r-62" value="" style="shape=partialRectangle;html=1;whiteSpace=wrap;collapsible=0;dropTarget=0;pointerEvents=0;fillColor=none;top=0;left=0;bottom=0;right=0;points=[[0,0.5],[1,0.5]];portConstraint=eastwest;" vertex="1" parent="iabTwCIQhZHO9AV8Lh7r-43">
          <mxGeometry y="360" width="60" height="40" as="geometry" />
        </mxCell>
        <mxCell id="iabTwCIQhZHO9AV8Lh7r-63" value="" style="shape=partialRectangle;html=1;whiteSpace=wrap;connectable=0;overflow=hidden;fillColor=none;top=0;left=0;bottom=0;right=0;" vertex="1" parent="iabTwCIQhZHO9AV8Lh7r-62">
          <mxGeometry width="60" height="40" as="geometry" />
        </mxCell>
        <mxCell id="iabTwCIQhZHO9AV8Lh7r-64" value="" style="shape=partialRectangle;html=1;whiteSpace=wrap;collapsible=0;dropTarget=0;pointerEvents=0;fillColor=none;top=0;left=0;bottom=0;right=0;points=[[0,0.5],[1,0.5]];portConstraint=eastwest;" vertex="1" parent="iabTwCIQhZHO9AV8Lh7r-43">
          <mxGeometry y="400" width="60" height="40" as="geometry" />
        </mxCell>
        <mxCell id="iabTwCIQhZHO9AV8Lh7r-65" value="10" style="shape=partialRectangle;html=1;whiteSpace=wrap;connectable=0;overflow=hidden;fillColor=#e1d5e7;top=0;left=0;bottom=0;right=0;strokeColor=#9673a6;" vertex="1" parent="iabTwCIQhZHO9AV8Lh7r-64">
          <mxGeometry width="60" height="40" as="geometry" />
        </mxCell>
        <mxCell id="iabTwCIQhZHO9AV8Lh7r-66" value="" style="shape=partialRectangle;html=1;whiteSpace=wrap;collapsible=0;dropTarget=0;pointerEvents=0;fillColor=none;top=0;left=0;bottom=0;right=0;points=[[0,0.5],[1,0.5]];portConstraint=eastwest;" vertex="1" parent="iabTwCIQhZHO9AV8Lh7r-43">
          <mxGeometry y="440" width="60" height="40" as="geometry" />
        </mxCell>
        <mxCell id="iabTwCIQhZHO9AV8Lh7r-67" value="9" style="shape=partialRectangle;html=1;whiteSpace=wrap;connectable=0;overflow=hidden;fillColor=#e1d5e7;top=0;left=0;bottom=0;right=0;strokeColor=#9673a6;" vertex="1" parent="iabTwCIQhZHO9AV8Lh7r-66">
          <mxGeometry width="60" height="40" as="geometry" />
        </mxCell>
        <mxCell id="iabTwCIQhZHO9AV8Lh7r-68" value="" style="shape=partialRectangle;html=1;whiteSpace=wrap;collapsible=0;dropTarget=0;pointerEvents=0;fillColor=none;top=0;left=0;bottom=0;right=0;points=[[0,0.5],[1,0.5]];portConstraint=eastwest;" vertex="1" parent="iabTwCIQhZHO9AV8Lh7r-43">
          <mxGeometry y="480" width="60" height="40" as="geometry" />
        </mxCell>
        <mxCell id="iabTwCIQhZHO9AV8Lh7r-69" value="8" style="shape=partialRectangle;html=1;whiteSpace=wrap;connectable=0;overflow=hidden;fillColor=#e1d5e7;top=0;left=0;bottom=0;right=0;strokeColor=#9673a6;" vertex="1" parent="iabTwCIQhZHO9AV8Lh7r-68">
          <mxGeometry width="60" height="40" as="geometry" />
        </mxCell>
        <mxCell id="iabTwCIQhZHO9AV8Lh7r-70" value="" style="shape=partialRectangle;html=1;whiteSpace=wrap;collapsible=0;dropTarget=0;pointerEvents=0;fillColor=none;top=0;left=0;bottom=0;right=0;points=[[0,0.5],[1,0.5]];portConstraint=eastwest;" vertex="1" parent="iabTwCIQhZHO9AV8Lh7r-43">
          <mxGeometry y="520" width="60" height="40" as="geometry" />
        </mxCell>
        <mxCell id="iabTwCIQhZHO9AV8Lh7r-71" value="7" style="shape=partialRectangle;html=1;whiteSpace=wrap;connectable=0;overflow=hidden;fillColor=#e1d5e7;top=0;left=0;bottom=0;right=0;strokeColor=#9673a6;" vertex="1" parent="iabTwCIQhZHO9AV8Lh7r-70">
          <mxGeometry width="60" height="40" as="geometry" />
        </mxCell>
        <mxCell id="iabTwCIQhZHO9AV8Lh7r-72" value="" style="shape=table;html=1;whiteSpace=wrap;startSize=0;container=1;collapsible=0;childLayout=tableLayout;fillColor=#dae8fc;strokeColor=#6c8ebf;" vertex="1" parent="1">
          <mxGeometry x="110" y="630" width="180" height="440" as="geometry" />
        </mxCell>
        <mxCell id="iabTwCIQhZHO9AV8Lh7r-73" value="" style="shape=partialRectangle;html=1;whiteSpace=wrap;collapsible=0;dropTarget=0;pointerEvents=0;fillColor=none;top=0;left=0;bottom=0;right=0;points=[[0,0.5],[1,0.5]];portConstraint=eastwest;" vertex="1" parent="iabTwCIQhZHO9AV8Lh7r-72">
          <mxGeometry width="180" height="40" as="geometry" />
        </mxCell>
        <mxCell id="iabTwCIQhZHO9AV8Lh7r-74" value="block" style="shape=partialRectangle;html=1;whiteSpace=wrap;connectable=0;overflow=hidden;fillColor=#e1d5e7;top=0;left=0;bottom=0;right=0;strokeColor=#9673a6;" vertex="1" parent="iabTwCIQhZHO9AV8Lh7r-73">
          <mxGeometry width="60" height="40" as="geometry" />
        </mxCell>
        <mxCell id="iabTwCIQhZHO9AV8Lh7r-75" value="page frame" style="shape=partialRectangle;html=1;whiteSpace=wrap;connectable=0;overflow=hidden;fillColor=#e1d5e7;top=0;left=0;bottom=0;right=0;strokeColor=#9673a6;" vertex="1" parent="iabTwCIQhZHO9AV8Lh7r-73">
          <mxGeometry x="60" width="120" height="40" as="geometry" />
        </mxCell>
        <mxCell id="iabTwCIQhZHO9AV8Lh7r-76" value="" style="shape=partialRectangle;html=1;whiteSpace=wrap;collapsible=0;dropTarget=0;pointerEvents=0;fillColor=none;top=0;left=0;bottom=0;right=0;points=[[0,0.5],[1,0.5]];portConstraint=eastwest;" vertex="1" parent="iabTwCIQhZHO9AV8Lh7r-72">
          <mxGeometry y="40" width="180" height="40" as="geometry" />
        </mxCell>
        <mxCell id="iabTwCIQhZHO9AV8Lh7r-77" value="1" style="shape=partialRectangle;html=1;whiteSpace=wrap;connectable=0;overflow=hidden;fillColor=none;top=0;left=0;bottom=0;right=0;" vertex="1" parent="iabTwCIQhZHO9AV8Lh7r-76">
          <mxGeometry width="60" height="40" as="geometry" />
        </mxCell>
        <mxCell id="iabTwCIQhZHO9AV8Lh7r-78" value="6" style="shape=partialRectangle;html=1;whiteSpace=wrap;connectable=0;overflow=hidden;fillColor=none;top=0;left=0;bottom=0;right=0;" vertex="1" parent="iabTwCIQhZHO9AV8Lh7r-76">
          <mxGeometry x="60" width="120" height="40" as="geometry" />
        </mxCell>
        <mxCell id="iabTwCIQhZHO9AV8Lh7r-79" value="" style="shape=partialRectangle;html=1;whiteSpace=wrap;collapsible=0;dropTarget=0;pointerEvents=0;fillColor=none;top=0;left=0;bottom=0;right=0;points=[[0,0.5],[1,0.5]];portConstraint=eastwest;" vertex="1" parent="iabTwCIQhZHO9AV8Lh7r-72">
          <mxGeometry y="80" width="180" height="40" as="geometry" />
        </mxCell>
        <mxCell id="iabTwCIQhZHO9AV8Lh7r-80" value="2" style="shape=partialRectangle;html=1;whiteSpace=wrap;connectable=0;overflow=hidden;fillColor=none;top=0;left=0;bottom=0;right=0;" vertex="1" parent="iabTwCIQhZHO9AV8Lh7r-79">
          <mxGeometry width="60" height="40" as="geometry" />
        </mxCell>
        <mxCell id="iabTwCIQhZHO9AV8Lh7r-81" value="13" style="shape=partialRectangle;html=1;whiteSpace=wrap;connectable=0;overflow=hidden;fillColor=none;top=0;left=0;bottom=0;right=0;" vertex="1" parent="iabTwCIQhZHO9AV8Lh7r-79">
          <mxGeometry x="60" width="120" height="40" as="geometry" />
        </mxCell>
        <mxCell id="iabTwCIQhZHO9AV8Lh7r-82" value="" style="shape=partialRectangle;html=1;whiteSpace=wrap;collapsible=0;dropTarget=0;pointerEvents=0;fillColor=none;top=0;left=0;bottom=0;right=0;points=[[0,0.5],[1,0.5]];portConstraint=eastwest;" vertex="1" parent="iabTwCIQhZHO9AV8Lh7r-72">
          <mxGeometry y="120" width="180" height="40" as="geometry" />
        </mxCell>
        <mxCell id="iabTwCIQhZHO9AV8Lh7r-83" value="3" style="shape=partialRectangle;html=1;whiteSpace=wrap;connectable=0;overflow=hidden;fillColor=none;top=0;left=0;bottom=0;right=0;" vertex="1" parent="iabTwCIQhZHO9AV8Lh7r-82">
          <mxGeometry width="60" height="40" as="geometry" />
        </mxCell>
        <mxCell id="iabTwCIQhZHO9AV8Lh7r-84" value="9" style="shape=partialRectangle;html=1;whiteSpace=wrap;connectable=0;overflow=hidden;fillColor=none;top=0;left=0;bottom=0;right=0;" vertex="1" parent="iabTwCIQhZHO9AV8Lh7r-82">
          <mxGeometry x="60" width="120" height="40" as="geometry" />
        </mxCell>
        <mxCell id="iabTwCIQhZHO9AV8Lh7r-85" value="" style="shape=partialRectangle;html=1;whiteSpace=wrap;collapsible=0;dropTarget=0;pointerEvents=0;fillColor=none;top=0;left=0;bottom=0;right=0;points=[[0,0.5],[1,0.5]];portConstraint=eastwest;" vertex="1" parent="iabTwCIQhZHO9AV8Lh7r-72">
          <mxGeometry y="160" width="180" height="40" as="geometry" />
        </mxCell>
        <mxCell id="iabTwCIQhZHO9AV8Lh7r-86" value="4" style="shape=partialRectangle;html=1;whiteSpace=wrap;connectable=0;overflow=hidden;fillColor=none;top=0;left=0;bottom=0;right=0;" vertex="1" parent="iabTwCIQhZHO9AV8Lh7r-85">
          <mxGeometry width="60" height="40" as="geometry" />
        </mxCell>
        <mxCell id="iabTwCIQhZHO9AV8Lh7r-87" value="11" style="shape=partialRectangle;html=1;whiteSpace=wrap;connectable=0;overflow=hidden;fillColor=none;top=0;left=0;bottom=0;right=0;" vertex="1" parent="iabTwCIQhZHO9AV8Lh7r-85">
          <mxGeometry x="60" width="120" height="40" as="geometry" />
        </mxCell>
        <mxCell id="iabTwCIQhZHO9AV8Lh7r-88" value="" style="shape=partialRectangle;html=1;whiteSpace=wrap;collapsible=0;dropTarget=0;pointerEvents=0;fillColor=none;top=0;left=0;bottom=0;right=0;points=[[0,0.5],[1,0.5]];portConstraint=eastwest;" vertex="1" parent="iabTwCIQhZHO9AV8Lh7r-72">
          <mxGeometry y="200" width="180" height="40" as="geometry" />
        </mxCell>
        <mxCell id="iabTwCIQhZHO9AV8Lh7r-89" value="5" style="shape=partialRectangle;html=1;whiteSpace=wrap;connectable=0;overflow=hidden;fillColor=none;top=0;left=0;bottom=0;right=0;" vertex="1" parent="iabTwCIQhZHO9AV8Lh7r-88">
          <mxGeometry width="60" height="40" as="geometry" />
        </mxCell>
        <mxCell id="iabTwCIQhZHO9AV8Lh7r-90" value="14" style="shape=partialRectangle;html=1;whiteSpace=wrap;connectable=0;overflow=hidden;fillColor=none;top=0;left=0;bottom=0;right=0;" vertex="1" parent="iabTwCIQhZHO9AV8Lh7r-88">
          <mxGeometry x="60" width="120" height="40" as="geometry" />
        </mxCell>
        <mxCell id="iabTwCIQhZHO9AV8Lh7r-91" value="" style="shape=partialRectangle;html=1;whiteSpace=wrap;collapsible=0;dropTarget=0;pointerEvents=0;fillColor=none;top=0;left=0;bottom=0;right=0;points=[[0,0.5],[1,0.5]];portConstraint=eastwest;" vertex="1" parent="iabTwCIQhZHO9AV8Lh7r-72">
          <mxGeometry y="240" width="180" height="40" as="geometry" />
        </mxCell>
        <mxCell id="iabTwCIQhZHO9AV8Lh7r-92" value="6" style="shape=partialRectangle;html=1;whiteSpace=wrap;connectable=0;overflow=hidden;fillColor=none;top=0;left=0;bottom=0;right=0;" vertex="1" parent="iabTwCIQhZHO9AV8Lh7r-91">
          <mxGeometry width="60" height="40" as="geometry" />
        </mxCell>
        <mxCell id="iabTwCIQhZHO9AV8Lh7r-93" value="7" style="shape=partialRectangle;html=1;whiteSpace=wrap;connectable=0;overflow=hidden;fillColor=none;top=0;left=0;bottom=0;right=0;" vertex="1" parent="iabTwCIQhZHO9AV8Lh7r-91">
          <mxGeometry x="60" width="120" height="40" as="geometry" />
        </mxCell>
        <mxCell id="iabTwCIQhZHO9AV8Lh7r-94" value="" style="shape=partialRectangle;html=1;whiteSpace=wrap;collapsible=0;dropTarget=0;pointerEvents=0;fillColor=none;top=0;left=0;bottom=0;right=0;points=[[0,0.5],[1,0.5]];portConstraint=eastwest;" vertex="1" parent="iabTwCIQhZHO9AV8Lh7r-72">
          <mxGeometry y="280" width="180" height="40" as="geometry" />
        </mxCell>
        <mxCell id="iabTwCIQhZHO9AV8Lh7r-95" value="7" style="shape=partialRectangle;html=1;whiteSpace=wrap;connectable=0;overflow=hidden;fillColor=#e1d5e7;top=0;left=0;bottom=0;right=0;strokeColor=#9673a6;" vertex="1" parent="iabTwCIQhZHO9AV8Lh7r-94">
          <mxGeometry width="60" height="40" as="geometry" />
        </mxCell>
        <mxCell id="iabTwCIQhZHO9AV8Lh7r-96" value="1" style="shape=partialRectangle;html=1;whiteSpace=wrap;connectable=0;overflow=hidden;fillColor=#e1d5e7;top=0;left=0;bottom=0;right=0;strokeColor=#9673a6;" vertex="1" parent="iabTwCIQhZHO9AV8Lh7r-94">
          <mxGeometry x="60" width="120" height="40" as="geometry" />
        </mxCell>
        <mxCell id="iabTwCIQhZHO9AV8Lh7r-97" value="" style="shape=partialRectangle;html=1;whiteSpace=wrap;collapsible=0;dropTarget=0;pointerEvents=0;fillColor=none;top=0;left=0;bottom=0;right=0;points=[[0,0.5],[1,0.5]];portConstraint=eastwest;" vertex="1" parent="iabTwCIQhZHO9AV8Lh7r-72">
          <mxGeometry y="320" width="180" height="40" as="geometry" />
        </mxCell>
        <mxCell id="iabTwCIQhZHO9AV8Lh7r-98" value="8" style="shape=partialRectangle;html=1;whiteSpace=wrap;connectable=0;overflow=hidden;fillColor=#e1d5e7;top=0;left=0;bottom=0;right=0;strokeColor=#9673a6;" vertex="1" parent="iabTwCIQhZHO9AV8Lh7r-97">
          <mxGeometry width="60" height="40" as="geometry" />
        </mxCell>
        <mxCell id="iabTwCIQhZHO9AV8Lh7r-99" value="2" style="shape=partialRectangle;html=1;whiteSpace=wrap;connectable=0;overflow=hidden;fillColor=#e1d5e7;top=0;left=0;bottom=0;right=0;strokeColor=#9673a6;" vertex="1" parent="iabTwCIQhZHO9AV8Lh7r-97">
          <mxGeometry x="60" width="120" height="40" as="geometry" />
        </mxCell>
        <mxCell id="iabTwCIQhZHO9AV8Lh7r-100" value="" style="shape=partialRectangle;html=1;whiteSpace=wrap;collapsible=0;dropTarget=0;pointerEvents=0;fillColor=none;top=0;left=0;bottom=0;right=0;points=[[0,0.5],[1,0.5]];portConstraint=eastwest;" vertex="1" parent="iabTwCIQhZHO9AV8Lh7r-72">
          <mxGeometry y="360" width="180" height="40" as="geometry" />
        </mxCell>
        <mxCell id="iabTwCIQhZHO9AV8Lh7r-101" value="9" style="shape=partialRectangle;html=1;whiteSpace=wrap;connectable=0;overflow=hidden;fillColor=#e1d5e7;top=0;left=0;bottom=0;right=0;strokeColor=#9673a6;" vertex="1" parent="iabTwCIQhZHO9AV8Lh7r-100">
          <mxGeometry width="60" height="40" as="geometry" />
        </mxCell>
        <mxCell id="iabTwCIQhZHO9AV8Lh7r-102" value="3" style="shape=partialRectangle;html=1;whiteSpace=wrap;connectable=0;overflow=hidden;fillColor=#e1d5e7;top=0;left=0;bottom=0;right=0;strokeColor=#9673a6;" vertex="1" parent="iabTwCIQhZHO9AV8Lh7r-100">
          <mxGeometry x="60" width="120" height="40" as="geometry" />
        </mxCell>
        <mxCell id="iabTwCIQhZHO9AV8Lh7r-103" value="" style="shape=partialRectangle;html=1;whiteSpace=wrap;collapsible=0;dropTarget=0;pointerEvents=0;fillColor=none;top=0;left=0;bottom=0;right=0;points=[[0,0.5],[1,0.5]];portConstraint=eastwest;" vertex="1" parent="iabTwCIQhZHO9AV8Lh7r-72">
          <mxGeometry y="400" width="180" height="40" as="geometry" />
        </mxCell>
        <mxCell id="iabTwCIQhZHO9AV8Lh7r-104" value="10" style="shape=partialRectangle;html=1;whiteSpace=wrap;connectable=0;overflow=hidden;fillColor=#e1d5e7;top=0;left=0;bottom=0;right=0;strokeColor=#9673a6;" vertex="1" parent="iabTwCIQhZHO9AV8Lh7r-103">
          <mxGeometry width="60" height="40" as="geometry" />
        </mxCell>
        <mxCell id="iabTwCIQhZHO9AV8Lh7r-105" value="4" style="shape=partialRectangle;html=1;whiteSpace=wrap;connectable=0;overflow=hidden;fillColor=#e1d5e7;top=0;left=0;bottom=0;right=0;strokeColor=#9673a6;" vertex="1" parent="iabTwCIQhZHO9AV8Lh7r-103">
          <mxGeometry x="60" width="120" height="40" as="geometry" />
        </mxCell>
        <mxCell id="iabTwCIQhZHO9AV8Lh7r-106" value="" style="shape=table;html=1;whiteSpace=wrap;startSize=0;container=1;collapsible=0;childLayout=tableLayout;fillColor=#dae8fc;strokeColor=#6c8ebf;" vertex="1" parent="1">
          <mxGeometry x="280" y="160" width="60" height="400" as="geometry" />
        </mxCell>
        <mxCell id="iabTwCIQhZHO9AV8Lh7r-107" value="" style="shape=partialRectangle;html=1;whiteSpace=wrap;collapsible=0;dropTarget=0;pointerEvents=0;fillColor=none;top=0;left=0;bottom=0;right=0;points=[[0,0.5],[1,0.5]];portConstraint=eastwest;" vertex="1" parent="iabTwCIQhZHO9AV8Lh7r-106">
          <mxGeometry width="60" height="40" as="geometry" />
        </mxCell>
        <mxCell id="iabTwCIQhZHO9AV8Lh7r-108" value="10" style="shape=partialRectangle;html=1;whiteSpace=wrap;connectable=0;overflow=hidden;fillColor=#e1d5e7;top=0;left=0;bottom=0;right=0;strokeColor=#9673a6;" vertex="1" parent="iabTwCIQhZHO9AV8Lh7r-107">
          <mxGeometry width="60" height="40" as="geometry" />
        </mxCell>
        <mxCell id="iabTwCIQhZHO9AV8Lh7r-109" value="" style="shape=partialRectangle;html=1;whiteSpace=wrap;collapsible=0;dropTarget=0;pointerEvents=0;fillColor=none;top=0;left=0;bottom=0;right=0;points=[[0,0.5],[1,0.5]];portConstraint=eastwest;" vertex="1" parent="iabTwCIQhZHO9AV8Lh7r-106">
          <mxGeometry y="40" width="60" height="40" as="geometry" />
        </mxCell>
        <mxCell id="iabTwCIQhZHO9AV8Lh7r-110" value="9" style="shape=partialRectangle;html=1;whiteSpace=wrap;connectable=0;overflow=hidden;fillColor=#e1d5e7;top=0;left=0;bottom=0;right=0;strokeColor=#9673a6;" vertex="1" parent="iabTwCIQhZHO9AV8Lh7r-109">
          <mxGeometry width="60" height="40" as="geometry" />
        </mxCell>
        <mxCell id="iabTwCIQhZHO9AV8Lh7r-111" value="" style="shape=partialRectangle;html=1;whiteSpace=wrap;collapsible=0;dropTarget=0;pointerEvents=0;fillColor=none;top=0;left=0;bottom=0;right=0;points=[[0,0.5],[1,0.5]];portConstraint=eastwest;" vertex="1" parent="iabTwCIQhZHO9AV8Lh7r-106">
          <mxGeometry y="80" width="60" height="40" as="geometry" />
        </mxCell>
        <mxCell id="iabTwCIQhZHO9AV8Lh7r-112" value="8" style="shape=partialRectangle;html=1;whiteSpace=wrap;connectable=0;overflow=hidden;fillColor=#e1d5e7;top=0;left=0;bottom=0;right=0;strokeColor=#9673a6;" vertex="1" parent="iabTwCIQhZHO9AV8Lh7r-111">
          <mxGeometry width="60" height="40" as="geometry" />
        </mxCell>
        <mxCell id="iabTwCIQhZHO9AV8Lh7r-113" value="" style="shape=partialRectangle;html=1;whiteSpace=wrap;collapsible=0;dropTarget=0;pointerEvents=0;fillColor=none;top=0;left=0;bottom=0;right=0;points=[[0,0.5],[1,0.5]];portConstraint=eastwest;" vertex="1" parent="iabTwCIQhZHO9AV8Lh7r-106">
          <mxGeometry y="120" width="60" height="40" as="geometry" />
        </mxCell>
        <mxCell id="iabTwCIQhZHO9AV8Lh7r-114" value="7" style="shape=partialRectangle;html=1;whiteSpace=wrap;connectable=0;overflow=hidden;fillColor=#e1d5e7;top=0;left=0;bottom=0;right=0;strokeColor=#9673a6;" vertex="1" parent="iabTwCIQhZHO9AV8Lh7r-113">
          <mxGeometry width="60" height="40" as="geometry" />
        </mxCell>
        <mxCell id="iabTwCIQhZHO9AV8Lh7r-115" value="" style="shape=partialRectangle;html=1;whiteSpace=wrap;collapsible=0;dropTarget=0;pointerEvents=0;fillColor=none;top=0;left=0;bottom=0;right=0;points=[[0,0.5],[1,0.5]];portConstraint=eastwest;" vertex="1" parent="iabTwCIQhZHO9AV8Lh7r-106">
          <mxGeometry y="160" width="60" height="40" as="geometry" />
        </mxCell>
        <mxCell id="iabTwCIQhZHO9AV8Lh7r-116" value="6" style="shape=partialRectangle;html=1;whiteSpace=wrap;connectable=0;overflow=hidden;fillColor=none;top=0;left=0;bottom=0;right=0;" vertex="1" parent="iabTwCIQhZHO9AV8Lh7r-115">
          <mxGeometry width="60" height="40" as="geometry" />
        </mxCell>
        <mxCell id="iabTwCIQhZHO9AV8Lh7r-117" value="" style="shape=partialRectangle;html=1;whiteSpace=wrap;collapsible=0;dropTarget=0;pointerEvents=0;fillColor=none;top=0;left=0;bottom=0;right=0;points=[[0,0.5],[1,0.5]];portConstraint=eastwest;" vertex="1" parent="iabTwCIQhZHO9AV8Lh7r-106">
          <mxGeometry y="200" width="60" height="40" as="geometry" />
        </mxCell>
        <mxCell id="iabTwCIQhZHO9AV8Lh7r-118" value="5" style="shape=partialRectangle;html=1;whiteSpace=wrap;connectable=0;overflow=hidden;fillColor=none;top=0;left=0;bottom=0;right=0;" vertex="1" parent="iabTwCIQhZHO9AV8Lh7r-117">
          <mxGeometry width="60" height="40" as="geometry" />
        </mxCell>
        <mxCell id="iabTwCIQhZHO9AV8Lh7r-119" value="" style="shape=partialRectangle;html=1;whiteSpace=wrap;collapsible=0;dropTarget=0;pointerEvents=0;fillColor=none;top=0;left=0;bottom=0;right=0;points=[[0,0.5],[1,0.5]];portConstraint=eastwest;" vertex="1" parent="iabTwCIQhZHO9AV8Lh7r-106">
          <mxGeometry y="240" width="60" height="40" as="geometry" />
        </mxCell>
        <mxCell id="iabTwCIQhZHO9AV8Lh7r-120" value="4" style="shape=partialRectangle;html=1;whiteSpace=wrap;connectable=0;overflow=hidden;fillColor=none;top=0;left=0;bottom=0;right=0;" vertex="1" parent="iabTwCIQhZHO9AV8Lh7r-119">
          <mxGeometry width="60" height="40" as="geometry" />
        </mxCell>
        <mxCell id="iabTwCIQhZHO9AV8Lh7r-121" value="" style="shape=partialRectangle;html=1;whiteSpace=wrap;collapsible=0;dropTarget=0;pointerEvents=0;fillColor=none;top=0;left=0;bottom=0;right=0;points=[[0,0.5],[1,0.5]];portConstraint=eastwest;" vertex="1" parent="iabTwCIQhZHO9AV8Lh7r-106">
          <mxGeometry y="280" width="60" height="40" as="geometry" />
        </mxCell>
        <mxCell id="iabTwCIQhZHO9AV8Lh7r-122" value="3" style="shape=partialRectangle;html=1;whiteSpace=wrap;connectable=0;overflow=hidden;fillColor=none;top=0;left=0;bottom=0;right=0;" vertex="1" parent="iabTwCIQhZHO9AV8Lh7r-121">
          <mxGeometry width="60" height="40" as="geometry" />
        </mxCell>
        <mxCell id="iabTwCIQhZHO9AV8Lh7r-123" value="" style="shape=partialRectangle;html=1;whiteSpace=wrap;collapsible=0;dropTarget=0;pointerEvents=0;fillColor=none;top=0;left=0;bottom=0;right=0;points=[[0,0.5],[1,0.5]];portConstraint=eastwest;" vertex="1" parent="iabTwCIQhZHO9AV8Lh7r-106">
          <mxGeometry y="320" width="60" height="40" as="geometry" />
        </mxCell>
        <mxCell id="iabTwCIQhZHO9AV8Lh7r-124" value="2" style="shape=partialRectangle;html=1;whiteSpace=wrap;connectable=0;overflow=hidden;fillColor=none;top=0;left=0;bottom=0;right=0;" vertex="1" parent="iabTwCIQhZHO9AV8Lh7r-123">
          <mxGeometry width="60" height="40" as="geometry" />
        </mxCell>
        <mxCell id="iabTwCIQhZHO9AV8Lh7r-125" value="" style="shape=partialRectangle;html=1;whiteSpace=wrap;collapsible=0;dropTarget=0;pointerEvents=0;fillColor=none;top=0;left=0;bottom=0;right=0;points=[[0,0.5],[1,0.5]];portConstraint=eastwest;" vertex="1" parent="iabTwCIQhZHO9AV8Lh7r-106">
          <mxGeometry y="360" width="60" height="40" as="geometry" />
        </mxCell>
        <mxCell id="iabTwCIQhZHO9AV8Lh7r-126" value="1" style="shape=partialRectangle;html=1;whiteSpace=wrap;connectable=0;overflow=hidden;fillColor=none;top=0;left=0;bottom=0;right=0;" vertex="1" parent="iabTwCIQhZHO9AV8Lh7r-125">
          <mxGeometry width="60" height="40" as="geometry" />
        </mxCell>
        <mxCell id="2" value="Parent&#39;s&lt;br&gt;Process Page Table" style="text;html=1;align=center;verticalAlign=middle;resizable=0;points=[];autosize=1;" vertex="1" parent="1">
          <mxGeometry x="140" y="595" width="120" height="30" as="geometry" />
        </mxCell>
        <mxCell id="iabTwCIQhZHO9AV8Lh7r-127" value="&lt;font style=&quot;font-size: 16px&quot;&gt;RAM&lt;/font&gt;" style="text;html=1;align=center;verticalAlign=middle;resizable=0;points=[];autosize=1;" vertex="1" parent="1">
          <mxGeometry x="705" y="130" width="50" height="20" as="geometry" />
        </mxCell>
        <mxCell id="iabTwCIQhZHO9AV8Lh7r-128" value="&lt;font style=&quot;font-size: 16px&quot;&gt;Kernel&lt;/font&gt;" style="text;html=1;align=center;verticalAlign=middle;resizable=0;points=[];autosize=1;" vertex="1" parent="1">
          <mxGeometry x="700" y="740" width="60" height="20" as="geometry" />
        </mxCell>
        <mxCell id="iabTwCIQhZHO9AV8Lh7r-163" value="Child&#39;s&lt;br&gt;Process Page Table" style="text;html=1;align=center;verticalAlign=middle;resizable=0;points=[];autosize=1;" vertex="1" parent="1">
          <mxGeometry x="400" y="595" width="120" height="30" as="geometry" />
        </mxCell>
        <mxCell id="iabTwCIQhZHO9AV8Lh7r-129" value="" style="shape=table;html=1;whiteSpace=wrap;startSize=0;container=1;collapsible=0;childLayout=tableLayout;fillColor=#dae8fc;strokeColor=#6c8ebf;" vertex="1" parent="1">
          <mxGeometry x="370" y="630" width="180" height="440" as="geometry" />
        </mxCell>
        <mxCell id="iabTwCIQhZHO9AV8Lh7r-130" value="" style="shape=partialRectangle;html=1;whiteSpace=wrap;collapsible=0;dropTarget=0;pointerEvents=0;fillColor=none;top=0;left=0;bottom=0;right=0;points=[[0,0.5],[1,0.5]];portConstraint=eastwest;" vertex="1" parent="iabTwCIQhZHO9AV8Lh7r-129">
          <mxGeometry width="180" height="40" as="geometry" />
        </mxCell>
        <mxCell id="iabTwCIQhZHO9AV8Lh7r-131" value="block" style="shape=partialRectangle;html=1;whiteSpace=wrap;connectable=0;overflow=hidden;fillColor=#e1d5e7;top=0;left=0;bottom=0;right=0;strokeColor=#9673a6;" vertex="1" parent="iabTwCIQhZHO9AV8Lh7r-130">
          <mxGeometry width="60" height="40" as="geometry" />
        </mxCell>
        <mxCell id="iabTwCIQhZHO9AV8Lh7r-132" value="page frame" style="shape=partialRectangle;html=1;whiteSpace=wrap;connectable=0;overflow=hidden;fillColor=#e1d5e7;top=0;left=0;bottom=0;right=0;strokeColor=#9673a6;" vertex="1" parent="iabTwCIQhZHO9AV8Lh7r-130">
          <mxGeometry x="60" width="120" height="40" as="geometry" />
        </mxCell>
        <mxCell id="iabTwCIQhZHO9AV8Lh7r-133" value="" style="shape=partialRectangle;html=1;whiteSpace=wrap;collapsible=0;dropTarget=0;pointerEvents=0;fillColor=none;top=0;left=0;bottom=0;right=0;points=[[0,0.5],[1,0.5]];portConstraint=eastwest;" vertex="1" parent="iabTwCIQhZHO9AV8Lh7r-129">
          <mxGeometry y="40" width="180" height="40" as="geometry" />
        </mxCell>
        <mxCell id="iabTwCIQhZHO9AV8Lh7r-134" value="1" style="shape=partialRectangle;html=1;whiteSpace=wrap;connectable=0;overflow=hidden;fillColor=#f8cecc;top=0;left=0;bottom=0;right=0;strokeColor=#b85450;" vertex="1" parent="iabTwCIQhZHO9AV8Lh7r-133">
          <mxGeometry width="60" height="40" as="geometry" />
        </mxCell>
        <mxCell id="iabTwCIQhZHO9AV8Lh7r-135" value="6" style="shape=partialRectangle;html=1;whiteSpace=wrap;connectable=0;overflow=hidden;fillColor=#f8cecc;top=0;left=0;bottom=0;right=0;strokeColor=#b85450;" vertex="1" parent="iabTwCIQhZHO9AV8Lh7r-133">
          <mxGeometry x="60" width="120" height="40" as="geometry" />
        </mxCell>
        <mxCell id="iabTwCIQhZHO9AV8Lh7r-136" value="" style="shape=partialRectangle;html=1;whiteSpace=wrap;collapsible=0;dropTarget=0;pointerEvents=0;fillColor=none;top=0;left=0;bottom=0;right=0;points=[[0,0.5],[1,0.5]];portConstraint=eastwest;" vertex="1" parent="iabTwCIQhZHO9AV8Lh7r-129">
          <mxGeometry y="80" width="180" height="40" as="geometry" />
        </mxCell>
        <mxCell id="iabTwCIQhZHO9AV8Lh7r-137" value="2" style="shape=partialRectangle;html=1;whiteSpace=wrap;connectable=0;overflow=hidden;fillColor=#f8cecc;top=0;left=0;bottom=0;right=0;strokeColor=#b85450;" vertex="1" parent="iabTwCIQhZHO9AV8Lh7r-136">
          <mxGeometry width="60" height="40" as="geometry" />
        </mxCell>
        <mxCell id="iabTwCIQhZHO9AV8Lh7r-138" value="13" style="shape=partialRectangle;html=1;whiteSpace=wrap;connectable=0;overflow=hidden;fillColor=#f8cecc;top=0;left=0;bottom=0;right=0;strokeColor=#b85450;" vertex="1" parent="iabTwCIQhZHO9AV8Lh7r-136">
          <mxGeometry x="60" width="120" height="40" as="geometry" />
        </mxCell>
        <mxCell id="iabTwCIQhZHO9AV8Lh7r-139" value="" style="shape=partialRectangle;html=1;whiteSpace=wrap;collapsible=0;dropTarget=0;pointerEvents=0;fillColor=none;top=0;left=0;bottom=0;right=0;points=[[0,0.5],[1,0.5]];portConstraint=eastwest;" vertex="1" parent="iabTwCIQhZHO9AV8Lh7r-129">
          <mxGeometry y="120" width="180" height="40" as="geometry" />
        </mxCell>
        <mxCell id="iabTwCIQhZHO9AV8Lh7r-140" value="3" style="shape=partialRectangle;html=1;whiteSpace=wrap;connectable=0;overflow=hidden;fillColor=#f8cecc;top=0;left=0;bottom=0;right=0;strokeColor=#b85450;" vertex="1" parent="iabTwCIQhZHO9AV8Lh7r-139">
          <mxGeometry width="60" height="40" as="geometry" />
        </mxCell>
        <mxCell id="iabTwCIQhZHO9AV8Lh7r-141" value="9" style="shape=partialRectangle;html=1;whiteSpace=wrap;connectable=0;overflow=hidden;fillColor=#f8cecc;top=0;left=0;bottom=0;right=0;strokeColor=#b85450;" vertex="1" parent="iabTwCIQhZHO9AV8Lh7r-139">
          <mxGeometry x="60" width="120" height="40" as="geometry" />
        </mxCell>
        <mxCell id="iabTwCIQhZHO9AV8Lh7r-142" value="" style="shape=partialRectangle;html=1;whiteSpace=wrap;collapsible=0;dropTarget=0;pointerEvents=0;fillColor=none;top=0;left=0;bottom=0;right=0;points=[[0,0.5],[1,0.5]];portConstraint=eastwest;" vertex="1" parent="iabTwCIQhZHO9AV8Lh7r-129">
          <mxGeometry y="160" width="180" height="40" as="geometry" />
        </mxCell>
        <mxCell id="iabTwCIQhZHO9AV8Lh7r-143" value="4" style="shape=partialRectangle;html=1;whiteSpace=wrap;connectable=0;overflow=hidden;fillColor=#f8cecc;top=0;left=0;bottom=0;right=0;strokeColor=#b85450;" vertex="1" parent="iabTwCIQhZHO9AV8Lh7r-142">
          <mxGeometry width="60" height="40" as="geometry" />
        </mxCell>
        <mxCell id="iabTwCIQhZHO9AV8Lh7r-144" value="11" style="shape=partialRectangle;html=1;whiteSpace=wrap;connectable=0;overflow=hidden;fillColor=#f8cecc;top=0;left=0;bottom=0;right=0;strokeColor=#b85450;" vertex="1" parent="iabTwCIQhZHO9AV8Lh7r-142">
          <mxGeometry x="60" width="120" height="40" as="geometry" />
        </mxCell>
        <mxCell id="iabTwCIQhZHO9AV8Lh7r-145" value="" style="shape=partialRectangle;html=1;whiteSpace=wrap;collapsible=0;dropTarget=0;pointerEvents=0;fillColor=none;top=0;left=0;bottom=0;right=0;points=[[0,0.5],[1,0.5]];portConstraint=eastwest;" vertex="1" parent="iabTwCIQhZHO9AV8Lh7r-129">
          <mxGeometry y="200" width="180" height="40" as="geometry" />
        </mxCell>
        <mxCell id="iabTwCIQhZHO9AV8Lh7r-146" value="5" style="shape=partialRectangle;html=1;whiteSpace=wrap;connectable=0;overflow=hidden;fillColor=#f8cecc;top=0;left=0;bottom=0;right=0;strokeColor=#b85450;" vertex="1" parent="iabTwCIQhZHO9AV8Lh7r-145">
          <mxGeometry width="60" height="40" as="geometry" />
        </mxCell>
        <mxCell id="iabTwCIQhZHO9AV8Lh7r-147" value="14" style="shape=partialRectangle;html=1;whiteSpace=wrap;connectable=0;overflow=hidden;fillColor=#f8cecc;top=0;left=0;bottom=0;right=0;strokeColor=#b85450;" vertex="1" parent="iabTwCIQhZHO9AV8Lh7r-145">
          <mxGeometry x="60" width="120" height="40" as="geometry" />
        </mxCell>
        <mxCell id="iabTwCIQhZHO9AV8Lh7r-148" value="" style="shape=partialRectangle;html=1;whiteSpace=wrap;collapsible=0;dropTarget=0;pointerEvents=0;fillColor=none;top=0;left=0;bottom=0;right=0;points=[[0,0.5],[1,0.5]];portConstraint=eastwest;" vertex="1" parent="iabTwCIQhZHO9AV8Lh7r-129">
          <mxGeometry y="240" width="180" height="40" as="geometry" />
        </mxCell>
        <mxCell id="iabTwCIQhZHO9AV8Lh7r-149" value="6" style="shape=partialRectangle;html=1;whiteSpace=wrap;connectable=0;overflow=hidden;fillColor=#f8cecc;top=0;left=0;bottom=0;right=0;strokeColor=#b85450;" vertex="1" parent="iabTwCIQhZHO9AV8Lh7r-148">
          <mxGeometry width="60" height="40" as="geometry" />
        </mxCell>
        <mxCell id="iabTwCIQhZHO9AV8Lh7r-150" value="7" style="shape=partialRectangle;html=1;whiteSpace=wrap;connectable=0;overflow=hidden;fillColor=#f8cecc;top=0;left=0;bottom=0;right=0;strokeColor=#b85450;" vertex="1" parent="iabTwCIQhZHO9AV8Lh7r-148">
          <mxGeometry x="60" width="120" height="40" as="geometry" />
        </mxCell>
        <mxCell id="iabTwCIQhZHO9AV8Lh7r-151" value="" style="shape=partialRectangle;html=1;whiteSpace=wrap;collapsible=0;dropTarget=0;pointerEvents=0;fillColor=none;top=0;left=0;bottom=0;right=0;points=[[0,0.5],[1,0.5]];portConstraint=eastwest;" vertex="1" parent="iabTwCIQhZHO9AV8Lh7r-129">
          <mxGeometry y="280" width="180" height="40" as="geometry" />
        </mxCell>
        <mxCell id="iabTwCIQhZHO9AV8Lh7r-152" value="7" style="shape=partialRectangle;html=1;whiteSpace=wrap;connectable=0;overflow=hidden;fillColor=#e1d5e7;top=0;left=0;bottom=0;right=0;strokeColor=#9673a6;" vertex="1" parent="iabTwCIQhZHO9AV8Lh7r-151">
          <mxGeometry width="60" height="40" as="geometry" />
        </mxCell>
        <mxCell id="iabTwCIQhZHO9AV8Lh7r-153" value="1" style="shape=partialRectangle;html=1;whiteSpace=wrap;connectable=0;overflow=hidden;fillColor=#e1d5e7;top=0;left=0;bottom=0;right=0;strokeColor=#9673a6;" vertex="1" parent="iabTwCIQhZHO9AV8Lh7r-151">
          <mxGeometry x="60" width="120" height="40" as="geometry" />
        </mxCell>
        <mxCell id="iabTwCIQhZHO9AV8Lh7r-154" value="" style="shape=partialRectangle;html=1;whiteSpace=wrap;collapsible=0;dropTarget=0;pointerEvents=0;fillColor=none;top=0;left=0;bottom=0;right=0;points=[[0,0.5],[1,0.5]];portConstraint=eastwest;" vertex="1" parent="iabTwCIQhZHO9AV8Lh7r-129">
          <mxGeometry y="320" width="180" height="40" as="geometry" />
        </mxCell>
        <mxCell id="iabTwCIQhZHO9AV8Lh7r-155" value="8" style="shape=partialRectangle;html=1;whiteSpace=wrap;connectable=0;overflow=hidden;fillColor=#e1d5e7;top=0;left=0;bottom=0;right=0;strokeColor=#9673a6;" vertex="1" parent="iabTwCIQhZHO9AV8Lh7r-154">
          <mxGeometry width="60" height="40" as="geometry" />
        </mxCell>
        <mxCell id="iabTwCIQhZHO9AV8Lh7r-156" value="2" style="shape=partialRectangle;html=1;whiteSpace=wrap;connectable=0;overflow=hidden;fillColor=#e1d5e7;top=0;left=0;bottom=0;right=0;strokeColor=#9673a6;" vertex="1" parent="iabTwCIQhZHO9AV8Lh7r-154">
          <mxGeometry x="60" width="120" height="40" as="geometry" />
        </mxCell>
        <mxCell id="iabTwCIQhZHO9AV8Lh7r-157" value="" style="shape=partialRectangle;html=1;whiteSpace=wrap;collapsible=0;dropTarget=0;pointerEvents=0;fillColor=none;top=0;left=0;bottom=0;right=0;points=[[0,0.5],[1,0.5]];portConstraint=eastwest;" vertex="1" parent="iabTwCIQhZHO9AV8Lh7r-129">
          <mxGeometry y="360" width="180" height="40" as="geometry" />
        </mxCell>
        <mxCell id="iabTwCIQhZHO9AV8Lh7r-158" value="9" style="shape=partialRectangle;html=1;whiteSpace=wrap;connectable=0;overflow=hidden;fillColor=#e1d5e7;top=0;left=0;bottom=0;right=0;strokeColor=#9673a6;" vertex="1" parent="iabTwCIQhZHO9AV8Lh7r-157">
          <mxGeometry width="60" height="40" as="geometry" />
        </mxCell>
        <mxCell id="iabTwCIQhZHO9AV8Lh7r-159" value="3" style="shape=partialRectangle;html=1;whiteSpace=wrap;connectable=0;overflow=hidden;fillColor=#e1d5e7;top=0;left=0;bottom=0;right=0;strokeColor=#9673a6;" vertex="1" parent="iabTwCIQhZHO9AV8Lh7r-157">
          <mxGeometry x="60" width="120" height="40" as="geometry" />
        </mxCell>
        <mxCell id="iabTwCIQhZHO9AV8Lh7r-160" value="" style="shape=partialRectangle;html=1;whiteSpace=wrap;collapsible=0;dropTarget=0;pointerEvents=0;fillColor=none;top=0;left=0;bottom=0;right=0;points=[[0,0.5],[1,0.5]];portConstraint=eastwest;" vertex="1" parent="iabTwCIQhZHO9AV8Lh7r-129">
          <mxGeometry y="400" width="180" height="40" as="geometry" />
        </mxCell>
        <mxCell id="iabTwCIQhZHO9AV8Lh7r-161" value="10" style="shape=partialRectangle;html=1;whiteSpace=wrap;connectable=0;overflow=hidden;fillColor=#e1d5e7;top=0;left=0;bottom=0;right=0;strokeColor=#9673a6;" vertex="1" parent="iabTwCIQhZHO9AV8Lh7r-160">
          <mxGeometry width="60" height="40" as="geometry" />
        </mxCell>
        <mxCell id="iabTwCIQhZHO9AV8Lh7r-162" value="4" style="shape=partialRectangle;html=1;whiteSpace=wrap;connectable=0;overflow=hidden;fillColor=#e1d5e7;top=0;left=0;bottom=0;right=0;strokeColor=#9673a6;" vertex="1" parent="iabTwCIQhZHO9AV8Lh7r-160">
          <mxGeometry x="60" width="120" height="40" as="geometry" />
        </mxCell>
        <mxCell id="iabTwCIQhZHO9AV8Lh7r-166" value="Parent process virtual memory map" style="text;html=1;align=center;verticalAlign=middle;resizable=0;points=[];autosize=1;rotation=270;" vertex="1" parent="1">
          <mxGeometry x="-20" y="380" width="200" height="20" as="geometry" />
        </mxCell>
        <mxCell id="iabTwCIQhZHO9AV8Lh7r-167" value="Child process virtual memory map" style="text;html=1;align=center;verticalAlign=middle;resizable=0;points=[];autosize=1;rotation=270;" vertex="1" parent="1">
          <mxGeometry x="150" y="380" width="200" height="20" as="geometry" />
        </mxCell>
        <mxCell id="iabTwCIQhZHO9AV8Lh7r-168" value="1" style="text;html=1;align=center;verticalAlign=middle;resizable=0;points=[];autosize=1;" vertex="1" parent="1">
          <mxGeometry x="665" y="700" width="20" height="20" as="geometry" />
        </mxCell>
        <mxCell id="iabTwCIQhZHO9AV8Lh7r-169" value="14" style="text;html=1;align=center;verticalAlign=middle;resizable=0;points=[];autosize=1;" vertex="1" parent="1">
          <mxGeometry x="665" y="160" width="30" height="20" as="geometry" />
        </mxCell>
      </root>
    </mxGraphModel>
  </diagram>
</mxfile>
